<?xml version="1.0" encoding="UTF-8"?>
<svg width="150" height="77" version="1.1" xmlns="http://www.w3.org/2000/svg">
 <path d="m50.482 14.22-7.638 2.078 7.48-16.298-48.499 17.838 2.651 21.368-4.476 4.314 13.351 33.42 28.378-10.449 9.864-23.143-4.235-4.08z" fill="#ff5100" fill-rule="evenodd"/>
 <path d="m92.281 11.134a0.292 0.292 0 0 0-0.29-0.29h-3.61c-0.105 0-0.236 0.132-0.236 0.29v9.545c0 0.131 0.131 0.236 0.236 0.236h3.61c0.158 0 0.29-0.105 0.29-0.236zm2.503-4.129c1.239 0 2.082 0.842 2.082 2.078v13.594c0 1.236-0.843 2.077-2.082 2.077h-9.143c-1.238 0-2.081-0.841-2.081-2.077v-13.594c0-1.236 0.843-2.078 2.081-2.078zm14.872 9.493v-5.338c0-0.315-0.263-0.526-0.632-0.526h-2.846a0.534 0.534 0 0 0-0.553 0.526v5.338zm4.585 8.256h-4.585v-4.417h-4.031v4.417h-4.585v-15.671c0-1.236 0.843-2.077 2.081-2.077h9.038c1.239 0 2.082 0.84 2.082 2.077zm12.789-13.674c0-0.13-0.131-0.262-0.237-0.262h-3.793v4.733h3.794c0.106 0 0.237-0.131 0.237-0.237v-4.233zm2.556-4.075a2 2 0 0 1 2.002 1.998v8.126c0 1.077-0.921 1.999-2.002 1.999h-0.132l2.187 5.626h-4.479l-2.213-5.626h-1.95v5.626h-4.584v-17.749h11.17zm14.924 5.101c0-0.762-0.527-1.288-1.29-1.288h-2.74v10.097h2.74c0.763 0 1.29-0.526 1.29-1.288v-7.52zm0.948-5.1c1.95 0 3.61 1.603 3.61 3.602v10.518a3.634 3.634 0 0 1-3.61 3.628h-9.564v-17.749h9.564zm-53.282 32.047v-5.338c0-0.315-0.264-0.526-0.632-0.526h-2.846a0.534 0.534 0 0 0-0.553 0.526v5.338h4.03zm4.584 8.257h-4.584v-4.418h-4.031v4.418h-4.585v-15.672c0-1.236 0.843-2.077 2.081-2.077h9.038c1.238 0 2.081 0.841 2.081 2.077zm8.39-10.045v10.045h-4.216v-17.749h4.638l3.583 8.283 3.294-8.283h4.848v17.749h-4.32v-10.229l-3.005 7.047h-1.792zm16.321-7.705h11.62v3.814h-7.062v3.103h6.113v3.786h-6.113v3.208h7.061v3.839h-11.619zm-37.911 22.628h11.62v3.813h-7.062v3.103h6.113v3.787h-6.113v3.207h7.061v3.839h-11.619zm15.477 0h11.62v3.813h-7.061v3.103h6.112v3.787h-6.112v3.207h7.06v3.839h-11.618zm24.99 17.749-3.478-6.784-1.45 2.34v4.444h-4.584v-17.749h4.585v7.39l4.61-7.39h5.112l-5.138 7.705 5.349 10.044zm-48.823-52.178c0-0.132-0.079-0.29-0.263-0.29h-4.11v3.918h4.11c0.184 0 0.263-0.13 0.263-0.263v-3.364zm0-6.942c0-0.132-0.079-0.29-0.263-0.29h-4.11v3.682h4.11c0.184 0 0.263-0.132 0.263-0.29zm-8.932 13.936v-17.749h10.961c1.45 0 2.371 0.92 2.371 2.235v3.944c0 1.21-0.79 2.367-2.424 2.761 1.634 0.395 2.556 1.5 2.556 2.682v3.866c0 1.393-0.922 2.261-2.371 2.261zm8.095 34.287h4.979v8.861c0 1.157-0.896 2.026-2.029 2.026h-8.99c-1.133 0-2.055-0.869-2.055-2.026v-13.725c0-1.078 0.922-1.998 2.055-1.998h11.019v3.812h-8.252c-0.132 0-0.264 0.131-0.264 0.29v9.518c0 0.158 0.132 0.263 0.264 0.263h3.773c0.184 0 0.29-0.105 0.29-0.263v-2.997h-2.398l1.608-3.76zm0-22.616h4.979v8.86c0 1.158-0.896 2.026-2.029 2.026h-8.99c-1.133 0-2.055-0.868-2.055-2.025v-13.726c0-1.078 0.922-1.998 2.055-1.998h11.019v3.812h-8.252c-0.132 0-0.264 0.132-0.264 0.29v9.518c0 0.158 0.132 0.263 0.264 0.263h3.773c0.184 0 0.29-0.105 0.29-0.263v-2.997h-2.398z" fill="#fff" fill-rule="evenodd"/>
</svg>